<svg xmlns="http://www.w3.org/2000/svg" viewBox="0 0 50 50"><defs><style>.cls-1{fill:#fff;}.cls-2{fill:#1d1d1b;}</style></defs><circle class="cls-1" cx="25" cy="25" r="25"/><path class="cls-2" d="M47.785,24.995a22.785,22.785,0,1,1-22.79-22.78A22.8177,22.8177,0,0,1,47.785,24.995Z"/><path class="cls-1" d="M41.9126,19.9347l-.2358-.0012-.6907-.0039L42.57,15.0729l.0836-.26a2.1073,2.1073,0,0,0,.1115-.6083,1.17,1.17,0,0,0-.3232-.8822,1.2416,1.2416,0,0,0-.8973-.3206,7.7967,7.7967,0,0,0-3.6375.7174,8.925,8.925,0,0,0-3.6819,4.5437l-.7262,1.6337-.6718-.0038a17.5913,17.5913,0,0,0-3.9176.3321,7.636,7.636,0,0,0-2.6857,1.1964,8.4629,8.4629,0,0,0-2.5652,2.9392,7.8365,7.8365,0,0,0-.9531,3.6933q-.002.3345.0228.6539l-5.5311-.0253,2.763-8.3054.9544.0037a4.2794,4.2794,0,0,0,3.1217-1.1533A4.0649,4.0649,0,0,0,25.25,16.1907a3.65,3.65,0,0,0-.8162-2.4474,2.6022,2.6022,0,0,0-2.0672-.986q-2.4429-.0114-3.65,3.6413l-.4246,1.2725-1.5526-.0063a1.7241,1.7241,0,0,0-1.2383.4169,1.525,1.525,0,0,0-.45,1.1559q-.0057,1.116,1.0127,1.1217l.2446.0013,1.0913.005-2.7542,8.3055-3.2078-.0139a4.5237,4.5237,0,0,0-2.692.6983A3.75,3.75,0,0,0,7.53,30.8967a5.17,5.17,0,0,0-.455,2.1305,4.4072,4.4072,0,0,0,1.0266,3.0191,3.3532,3.3532,0,0,0,2.6337,1.1964,4.54,4.54,0,0,0,3.4969-1.711,6.8507,6.8507,0,0,0,.95-1.3726,24.257,24.257,0,0,0,1.0114-2.4665l.11-.3156,6.7592.03a2.3436,2.3436,0,0,0,.422-.033,5.4249,5.4249,0,0,0,.4158.64,3.6457,3.6457,0,0,0,2.9949,1.6109q2.9163.0132,5.0634-4.57L34.9962,22.6l2.5159.0114-.7275,2.2091a6.1378,6.1378,0,0,0-.38,1.7592,1.7812,1.7812,0,0,0,.4892,1.3068,1.71,1.71,0,0,0,1.2738.5069l1.9442.0089.2459.0013a1.3083,1.3083,0,0,0,1.019-.4639A1.66,1.66,0,0,0,41.8,26.7966q.0057-1.0837-1.0127-1.0888h-.2358L39.07,25.7l1.0228-3.076,1.1445.0051.2459.0012a1.3165,1.3165,0,0,0,1.019-.4638,1.6478,1.6478,0,0,0,.4233-1.1331Q42.9309,19.9385,41.9126,19.9347ZM21.1115,16.9056q.5266-1.578,1.1433-1.5754c.4537.0025.6806.3041.6768.9062a1.3145,1.3145,0,0,1-.4905,1.03,1.71,1.71,0,0,1-1.1686.4182l-.4182-.0012Zm-8.62,16.7059a2.13,2.13,0,0,1-1.5615.8226,1.264,1.264,0,0,1-.98-.44,1.55,1.55,0,0,1-.3853-1.08q.0057-1.5684,1.7871-1.56l2.3891.01A6.4762,6.4762,0,0,1,12.4918,33.6115Zm17.0266-5.256q-1.0647,2.2509-2.436,2.2459a1.6259,1.6259,0,0,1-1.3409-.7681,3.0348,3.0348,0,0,1-.5463-1.8365,5.159,5.159,0,0,1,.5881-2.3232,5.6185,5.6185,0,0,1,1.5576-1.9112A6.5183,6.5183,0,0,1,31.47,22.5849l.7732.0038Zm8.8961-8.4373-2.1889-.01.3752-.7655a9.7943,9.7943,0,0,1,1.5158-2.47,2.4535,2.4535,0,0,1,1.6249-.7542Z"/></svg>