<svg xmlns="http://www.w3.org/2000/svg" fill="currentColor" viewBox="0 0 24 24" storke="none">
<path class="st0" d="M9.6,8C9.5,7.6,9.3,7.6,9.1,7.6c-0.1,0-0.3,0-0.5,0C8.5,7.6,8.3,7.6,8,7.9c-0.2,0.2-0.8,0.8-0.8,2
	c0,1.2,0.8,2.3,1,2.4c0.1,0.2,1.6,2.6,4,3.6c2,0.8,2.4,0.6,2.8,0.6c0.4,0,1.4-0.6,1.6-1.1c0.2-0.5,0.2-1,0.1-1.1
	c-0.1-0.1-0.2-0.2-0.5-0.3s-1.4-0.7-1.6-0.8c-0.2-0.1-0.4-0.1-0.5,0.1c-0.2,0.2-0.6,0.8-0.7,0.9c-0.1,0.2-0.3,0.2-0.5,0.1
	c-0.2-0.1-1-0.4-1.9-1.2c-0.7-0.6-1.2-1.4-1.3-1.6c-0.1-0.2,0-0.4,0.1-0.5c0.1-0.1,0.2-0.3,0.4-0.4c0.1-0.1,0.2-0.2,0.2-0.4
	c0.1-0.2,0-0.3,0-0.4S9.9,8.4,9.6,8L9.6,8z"/>
<path class="st1" d="M18.7,5.3c-1.8-1.8-4.1-2.8-6.7-2.8c-5.2,0-9.4,4.2-9.4,9.4c0,1.7,0.4,3.3,1.3,4.7l-1.3,4.9l5-1.3
	c1.4,0.8,2.9,1.1,4.5,1.1h0c5.2,0,9.4-4.2,9.4-9.4C21.5,9.4,20.5,7,18.7,5.3z M12,19.7L12,19.7c-1.4,0-2.8-0.4-4-1.1l-0.3-0.2
	l-3,0.8l0.8-2.9l-0.2-0.3c-0.8-1.2-1.2-2.7-1.2-4.2c0-4.3,3.5-7.8,7.8-7.8c2.1,0,4.1,0.8,5.5,2.3c1.5,1.5,2.3,3.4,2.3,5.5
	C19.9,16.2,16.4,19.7,12,19.7z"/>
</svg>
